<?xml version="1.0" encoding="UTF-8"?><svg id="Layer_2" xmlns="http://www.w3.org/2000/svg" viewBox="0 0 113.51 80.93"><defs><style>.cls-1{fill:#4170b7;}</style></defs><g id="Layer_1-2"><path class="cls-1" d="m95.49,75.11c-1.71,1.01-3.95,1.69-5.18,3.19-3.39,4.14-6.89,2.68-11.27.49,2.68-.7,4.8-1.44,6.97-1.76,2.93-.43,4.05-1.97,3.65-4.78-.8-5.6-1.62-11.2-2.44-16.8-.34-2.28-.74-4.56-1.06-6.84-1-7.04-3.21-8.72-12.85-9.14.3,3.2.8,6.29.8,9.39,0,2.47-.14,5.14-1.04,7.39-2.41,6.03-5.26,11.88-8.17,18.3,2.14.8,3.66,1.37,4.81,1.8-4.71,1.11-9.69,2.28-15.82,3.73,1.43-1.19,1.87-1.56,2.32-1.93-1.97-.34-3.77-.65-5.57-.96,0-.33,0-.66.01-1,2,0,4,.04,6-.06.19,0,.33-.92.63-1.82,5.85,2.34,7.42-2.32,9.02-6.77,1.91-5.3,4.2-10.53,5.34-16,1.28-6.12.5-12.17-4.58-16.83-.95-.87-1.91-1.92-2.39-3.08-1.48-3.54-4.29-4.39-7.73-4.38-8.01.03-14.78-2.04-18.96-9.81-1.87-3.48-7.56-3.46-12.29-1.34-8.38,3.76-16.93,7.14-25.67,10.42,2.55-2,5.26-3.82,7.61-6.04,2.67-2.51,5-5.37,7.49-8.07.79-.85,1.52-1.78,2.42-2.49,6.77-5.4,21.73-3.44,26.95,3.48.61.81,1.1,2.04,1.91,2.32,1.92.66,4.2,1.57,5.95,1.05,1.39-.41,2.88-2.67,3.14-4.31,1.46-9.09,8.77-14.27,17.72-11.85,11.32,3.07,18.81,10.99,25.18,20.35,2.67,3.93,6,7.4,8.82,11.22,2.01,2.72,3.7,5.7,6.34,9.82-3.53.29-6.38,1.43-8.17.5-6.27-3.22-12.8-3.12-19.73-2.81,0,.64-.24,1.43.04,1.93,4.35,7.94,3.6,16.87,4.94,25.39.58,3.7.49,7.8,4.9,8.1Z"/></g></svg>