<?xml version="1.0" encoding="UTF-8"?><svg id="Layer_2" xmlns="http://www.w3.org/2000/svg" viewBox="0 0 93.06 138.93"><defs><style>.cls-1{fill:#4170b7;}</style></defs><g id="Layer_1-2"><path class="cls-1" d="m93.06,87.64c-2.84,3.05-4.83,5.36-7.03,7.45-.54.51-1.97.77-2.58.43-3.85-2.21-7.65-4.54-11.34-7.01-2.6-1.74-5-3.76-8.28-6.26-.53,4.29-1.18,7.52-1.29,10.77-.35,10.59-.57,21.19-.72,31.79-.1,6.96,1.06,8.02,8.18,7.91,1.81-.03,3.61-.25,5.41-.39.03.4.06.79.08,1.19l-24.41,2.28c-.06-.24-.12-.48-.18-.72.8-.22,1.59-.46,2.39-.65,4.83-1.12,6.75-3.13,6.82-8.07.11-7.4-.21-14.8-.12-22.2.06-5.06.37-10.12.79-15.16.58-6.95-1.58-11.92-9.12-13.29-2.89,5.82-2.63,12.23-1.73,18.53.69,4.82-.06,8.98-2.09,13.4-2.92,6.36-5.01,13.11-7.86,20.79,2.32-.62,3.15-.83,3.75-.99-.32,1.46-1.19,3.15-.87,4.56.32,1.39,1.85,2.51,2.22,4.46-1.85-1.69-3.69-3.39-5.5-5.05-1.76,2.49-3.53,4.99-5.29,7.49-.63-.61-1.26-1.22-1.89-1.83,1.05-1.16,2.1-2.31,3.58-3.94-4.47,1.61-8.33,3.01-12.19,4.4-.16-.46-.32-.92-.48-1.38.98-.34,1.94-.71,2.94-1,7.19-2.08,12.22-6.32,14.49-13.71,1.87-6.09,5.4-11.95,5.93-18.1.77-8.99-.49-18.15-.91-27.23-.2-4.19-2.56-7.25-4.72-10.74-6.73-10.82-13.17-21.96-13.29-35.33-.04-4.45,1.08-8.25,5.84-10.21,1.18-.49,2.66-3.01,2.29-3.86-.54-1.27-2.59-2.62-4.02-2.65-10.67-.22-21.36-.12-31.83-.12,5.19-1.9,10.89-3.83,16.44-6.09,2.6-1.06,5.11-2.55,7.36-4.25,2.99-2.25,6.3-3.8,9.71-2.3,4.82,2.12,9.28,5.05,13.89,7.63-.21.41-.43.82-.64,1.23-.87-.45-1.74-.9-3.01-1.55.3.83.38,1.24.57,1.58,3.99,6.94,3.74,9.87-1.39,16.13-4.37,5.33-4.65,6.46-2.74,9.88,2.67-1.26,5.43-3.7,7.92-3.46,3.37.32,7.09,2.08,9.69,4.33,5.01,4.32,10.14,8.9,13.76,14.34,5.53,8.3,9.75,17.46,14.67,26.17,2.09,3.7,4.54,7.2,6.82,10.77Z"/></g></svg>