<?xml version="1.0" encoding="UTF-8"?><svg id="Layer_2" xmlns="http://www.w3.org/2000/svg" viewBox="0 0 103.68 119.51"><defs><style>.cls-1{fill:#4170b7;}</style></defs><g id="Layer_1-2"><path class="cls-1" d="m67.5,33.37c-.74-1.29-1.2-2.87-2.25-3.81-6.29-5.69-6.79-13.23-6.87-20.9,0-.66.93-1.41,1.56-1.98.63-.58,1.4-1.01,2.13-1.46,2.7-1.62,5.24-3.69,8.15-4.7,3.84-1.34,7.31-.06,10.22,3.03,1.91,2.03,4.12,3.98,6.57,5.25,5.51,2.85,11.25,5.25,16.67,8.63-6.06-1.21-12.07-2.8-18.19-3.52-4.95-.59-10.02-.21-15.04-.05-.75.02-1.99,1.12-2.07,1.82-.11.96.42,2.26,1.12,3,2.08,2.22,4.48,4.13,6.57,6.35,2.95,3.13,4.14,6.98,1.97,10.8-3.03,5.35-6.27,10.69-10.13,15.44-4.09,5.04-8.46,10.22-13.72,13.88-9.98,6.94-10.2,16.26-8.43,26.52.96,5.58,1.96,11.15,3.12,16.68,1.44,6.89,2.61,7.75,9.72,7.83,1.3.01,2.61,0,3.97,0q-1.07,3.39-13.62,1.07c.53.85.87,1.42,1.39,2.25h-17.12c6.16-1.98,4.8-7.03,4.53-11.45-.66-10.58-1.53-21.14-2.27-31.71-.17-2.48-1.09-3.75-3.84-4.19-2.18-.35-4.1-2.6-6.25-2.8-4.05-.37-8.18.15-12.28.26-2.6.07-5.21.24-7.79.02-1.63-.14-3.2-.94-5.34-1.62.92-1.95,1.64-4.62,3.22-6.62,5.29-6.73,10.42-13.68,16.48-19.67,5.52-5.46,11.99-10.03,18.38-14.52,7.49-5.27,21.76-5.06,26.7,5.17.3.63.95,1.08,1.44,1.62.43-.21.86-.41,1.28-.62Zm-23.59,38.59c-4.54.07-5.08.23-5.29,3.85-.32,5.47-.37,10.99-.15,16.47.29,7.1.91,14.19,1.5,21.27.23,2.74,2.09,4.3,4.72,4,2.92-.34,3.59-2.62,3.07-5.23-1.38-6.96-2.44-14.01-4.36-20.82-1.1-3.93-1.58-7.49-.49-11.44.71-2.57.69-5.34,1.01-8.09Z"/></g></svg>