<?xml version="1.0" encoding="UTF-8"?><svg id="Layer_2" xmlns="http://www.w3.org/2000/svg" viewBox="0 0 189.33 117.44"><defs><style>.cls-1{fill:#4170b7;}</style></defs><g id="Layer_1-2"><path class="cls-1" d="m76.27,94.37c-4.34,1.4-8.12,6.35-7.81,11.05.23,3.45.04,6.01-3.85,6.98-2.06-1.72-1.22-3.41.3-5.4,1.39-1.82,2.49-3.92,3.44-6.02,1.77-3.92,3.21-7.49-1.82-10.79-3.19-2.09-2.38-6.02.93-10.34-1.98-.87-3.98-1.75-5.98-2.63.79-1.41,1.59-2.81,1.88-3.32-.15-2.34-.15-4.12-.4-5.87-.27-1.9-.13-4.62-1.29-5.51-3.74-2.86-8.13-4.87-12.02-7.55-2.44-1.68-4.69-3.77-6.58-6.05-2.31-2.77-4-6.07-6.29-8.86-1.08-1.32-3.14-1.79-4.43-2.99-5.06-4.67-9.79-9.73-15.07-14.13-3.03-2.53-6.89-4.06-10.35-6.1C2.34,14.14-.71,8.16.14,3.81.61,1.45,1.48-.62,4.37.17c10.45,2.89,21.15,5.18,31.2,9.12,8.8,3.46,16.87,8.78,25.2,13.41,1.35.75,2.69,1.97,3.41,3.31,5.13,9.56,13.9,15.49,21.86,22.22,5.7,4.81,11.78,3.48,15-3.1,1.02-2.08,2.31-4.03,3.25-6.13,1.51-3.42,3.74-5.3,7.75-5,1.6.12,3.27-.84,4.18-1.09-5.03,6.55-10.42,13.59-16.45,21.45,3.56,2.17,6.34,4.73,9.58,5.66,8.78,2.5,17.69,4.69,26.67,6.3,11.23,2.01,20.28,7.48,28.13,15.49,7.11,7.25,14.43,14.31,21.62,21.49,1.07,1.07,1.9,2.37,3.57,4.49-2.87-.42-4.53-.66-6.37-.93,1.11,1.48,2.15,2.85,4.01,5.3-2.89-.75-4.46-1.16-6.23-1.62.19,1.27.36,2.46.61,4.19-1.34-.7-2.19-1.14-3.37-1.76.2,1.33.36,2.48.66,4.47-1.42-1.25-2.27-2-3.2-2.82-.27.77-.54,1.52-.72,2.03-3.39-1.47-6.83-2.56-9.87-4.34-10.33-6.03-21.22-10.3-32.99-12.76-8.65-1.81-17.06-4.79-25.53-7.39-2.8-.86-5.47-2.15-8.13-3.23-.67,1.8-1.32,3.55-1.97,5.3-1.6-.69-3.21-1.38-4.8-2.07-2.36,6.42-2.32,6.24-9.21,4.31-1.27-.36-3.68.91-4.57,2.14-1.39,1.94-1.98,4.47-2.83,6.77-.89,2.4-1.68,4.84-3.21,7.05-2.69-7.13,6.33-10.89,4.67-18.07Z"/></g></svg>